<svg width="27" height="23" viewBox="0 0 27 23" fill="none" xmlns="http://www.w3.org/2000/svg">
<path fill-rule="evenodd" clip-rule="evenodd" d="M7.584 1.444L5.96725 7.16475L5.94187 7.26625C2.82981 7.744 0.8125 8.5105 0.8125 9.375C0.8125 10.824 6.49288 12 13.5 12C20.5071 12 26.1875 10.824 26.1875 9.375C26.1875 8.5105 24.1702 7.744 21.0581 7.26625C21.0507 7.23218 21.0422 7.19834 21.0328 7.16475L19.416 1.44225C19.1514 0.509497 18.1509 -0.0435031 17.1703 0.157747C16.0574 0.385247 14.6237 0.624997 13.5 0.624997C12.3763 0.624997 10.9426 0.386997 9.82969 0.157747C8.84912 -0.0435031 7.84863 0.507747 7.584 1.444ZM7.61119 8.21125C7.61708 8.154 7.63461 8.09844 7.66277 8.04774C7.69093 7.99705 7.72917 7.95221 7.77529 7.9158C7.82142 7.87939 7.87454 7.85212 7.93159 7.83555C7.98865 7.81898 8.04853 7.81344 8.10781 7.81925C9.73906 7.98025 11.5697 8.0695 13.5 8.0695C15.3006 8.07356 17.1003 7.99004 18.8922 7.81925C19.0119 7.80764 19.1315 7.84242 19.2246 7.91594C19.3177 7.98945 19.3768 8.09568 19.3888 8.21125C19.4008 8.32681 19.3648 8.44226 19.2887 8.53218C19.2125 8.62211 19.1025 8.67914 18.9828 8.69075C17.3189 8.8535 15.4593 8.9445 13.5 8.9445C11.5407 8.9445 9.68106 8.8535 8.01719 8.69075C7.9579 8.68506 7.90035 8.66813 7.84784 8.64095C7.79534 8.61376 7.7489 8.57684 7.71119 8.5323C7.67348 8.48776 7.64523 8.43648 7.62807 8.38139C7.61091 8.3263 7.60518 8.26848 7.61119 8.21125ZM5.34375 15.5H8.96875C9.2091 15.5 9.43961 15.5922 9.60957 15.7563C9.77952 15.9204 9.875 16.1429 9.875 16.375V18.125C9.875 18.8212 9.58856 19.4889 9.0787 19.9812C8.56883 20.4734 7.87731 20.75 7.15625 20.75C6.43519 20.75 5.74367 20.4734 5.2338 19.9812C4.72394 19.4889 4.4375 18.8212 4.4375 18.125V16.375C4.4375 16.1429 4.53298 15.9204 4.70293 15.7563C4.87289 15.5922 5.1034 15.5 5.34375 15.5ZM2.625 16.375C2.625 16.0687 2.67938 15.773 2.77906 15.5H2.625C2.38465 15.5 2.15414 15.4078 1.98418 15.2437C1.81423 15.0796 1.71875 14.8571 1.71875 14.625C1.71875 14.3929 1.81423 14.1704 1.98418 14.0063C2.15414 13.8422 2.38465 13.75 2.625 13.75H8.96875C9.63074 13.7501 10.27 13.9833 10.7665 14.4061C11.263 14.8288 11.5828 15.4119 11.6657 16.046C12.8619 15.6972 14.1381 15.6972 15.3343 16.046C15.4172 15.4119 15.737 14.8288 16.2335 14.4061C16.73 13.9833 17.3693 13.7501 18.0312 13.75H24.375C24.6154 13.75 24.8459 13.8422 25.0158 14.0063C25.1858 14.1704 25.2812 14.3929 25.2812 14.625C25.2812 14.8571 25.1858 15.0796 25.0158 15.2437C24.8459 15.4078 24.6154 15.5 24.375 15.5H24.2209C24.3206 15.773 24.375 16.0687 24.375 16.375V18.125C24.375 19.2853 23.8976 20.3981 23.0478 21.2186C22.1981 22.0391 21.0455 22.5 19.8438 22.5C18.642 22.5 17.4894 22.0391 16.6397 21.2186C15.7899 20.3981 15.3125 19.2853 15.3125 18.125V17.88L14.9319 17.7575C14.0024 17.4586 12.9976 17.4586 12.0681 17.7575L11.6875 17.88V18.125C11.6875 19.2853 11.2101 20.3981 10.3603 21.2186C9.51055 22.0391 8.35801 22.5 7.15625 22.5C5.95449 22.5 4.80195 22.0391 3.95217 21.2186C3.1024 20.3981 2.625 19.2853 2.625 18.125V16.375ZM18.0312 15.5H21.6562C21.8966 15.5 22.1271 15.5922 22.2971 15.7563C22.467 15.9204 22.5625 16.1429 22.5625 16.375V18.125C22.5625 18.8212 22.2761 19.4889 21.7662 19.9812C21.2563 20.4734 20.5648 20.75 19.8438 20.75C19.1227 20.75 18.4312 20.4734 17.9213 19.9812C17.4114 19.4889 17.125 18.8212 17.125 18.125V16.375C17.125 16.1429 17.2205 15.9204 17.3904 15.7563C17.5604 15.5922 17.7909 15.5 18.0312 15.5Z" fill="#0038FF"/>
</svg>
